<?xml version="1.0" encoding="UTF-8"?>
<!DOCTYPE svg PUBLIC "-//W3C//DTD SVG 1.1//EN" "http://www.w3.org/Graphics/SVG/1.1/DTD/svg11.dtd">
<!-- Creator: CorelDRAW X6 -->
<svg xmlns="http://www.w3.org/2000/svg" xml:space="preserve" width="102mm" height="102mm" version="1.1" style="shape-rendering:geometricPrecision; text-rendering:geometricPrecision; image-rendering:optimizeQuality; fill-rule:evenodd; clip-rule:evenodd"
viewBox="0 0 10200 10200"
 xmlns:xlink="http://www.w3.org/1999/xlink">
 <defs>
  <style type="text/css">
   <![CDATA[
    .str0 {stroke:#FEFEFE;stroke-width:10}
    .fil0 {fill:#FFFDF2}
   ]]>
  </style>
 </defs>
 <g id="Camada_x0020_1">
  <metadata id="CorelCorpID_0Corel-Layer"/>
  <g id="_915981072">
   <g>
    <path class="fil0 str0" d="M5113 5416c9,0 18,0 29,0 4,0 7,0 11,0 5,0 13,0 18,0 534,-9 966,-197 1285,-556 702,-791 585,-2147 572,-2276 -46,-971 -505,-1436 -884,-1653 -282,-162 -612,-250 -980,-257l-13 0c-2,0 -5,0 -7,0l-11 0c-202,0 -600,33 -980,250 -383,217 -849,682 -895,1660 -13,129 -129,1485 572,2276 317,359 749,547 1283,556zm-1369 -2786c0,-5 2,-11 2,-15 60,-1307 988,-1447 1385,-1447l7 0c4,0 9,0 15,0 492,11 1329,211 1385,1447 0,5 0,11 2,15 2,13 129,1252 -450,1904 -230,259 -536,386 -939,390 -4,0 -5,0 -9,0l0 0c-4,0 -5,0 -9,0 -401,-4 -709,-131 -937,-390 -578,-649 -454,-1893 -452,-1904z"/>
    <path class="fil0 str0" d="M8887 7665c0,-2 0,-4 0,-5 0,-15 -2,-29 -2,-46 -11,-361 -35,-1205 -826,-1474 -5,-2 -13,-4 -18,-5 -822,-210 -1505,-683 -1513,-689 -111,-78 -264,-51 -343,60 -78,111 -51,264 60,343 31,22 756,527 1664,760 425,151 472,605 485,1021 0,16 0,31 2,46 2,164 -9,417 -38,563 -295,168 -1452,747 -3213,747 -1753,0 -2918,-581 -3215,-749 -29,-146 -42,-399 -38,-563 0,-15 2,-29 2,-46 13,-416 60,-869 485,-1021 908,-233 1633,-740 1664,-760 111,-78 139,-231 60,-343 -78,-111 -231,-139 -343,-60 -7,5 -687,479 -1513,689 -7,2 -13,4 -18,5 -791,272 -815,1115 -826,1474 0,16 0,31 -2,46 0,2 0,4 0,5 -2,95 -4,581 93,826 18,47 51,87 95,115 55,36 1365,871 3557,871 2192,0 3503,-836 3557,-871 42,-27 77,-67 95,-115 91,-242 89,-729 87,-824z"/>
   </g>
  </g>
 </g>
</svg>
